custom-analysis
version=1
nRows=4
nColumns=98
inDegrees=no

This file contains tibia displacement and acting force.

Units are S.I. units (seconds, meters, Newtons, ...)
Angles are in degrees.

endheader
time	APT	SIT	knee_angle	aACL_R_force	pACL_R_force	aPCL_R_force	pPCL_R_force	aMCL_R_force	mMCL_R_force	pMCL_R_force	aLCL_R_force	mLCL_R_force	pLCL_R_force	aPCL_L_force	pPCL_L_force	aMCL_L_force	aLCL_L_force	aACL_R_length	pACL_R_length	aPCL_R_length	pPCL_R_length	aMCL_R_length	mMCL_R_length	pMCL_R_length	aLCL_R_length	mLCL_R_length	pLCL_R_length	aPCL_L_length	pPCL_L_length	aMCL_L_length	aLCL_L_length	aACL_R_strain	pACL_R_strain	aPCL_R_strain	pPCL_R_strain	aMCL_R_strain	mMCL_R_strain	pMCL_R_strain	aLCL_R_strain	mLCL_R_strain	pLCL_R_strain	aPCL_L_strain	pPCL_L_strain	aMCL_L_strain	aLCL_L_strain	femur_lat_meniscii_r.femur_lat_r.force.X	femur_lat_meniscii_r.femur_lat_r.force.Y	femur_lat_meniscii_r.femur_lat_r.force.Z	femur_lat_meniscii_r.femur_lat_r.torque.X	femur_lat_meniscii_r.femur_lat_r.torque.Y	femur_lat_meniscii_r.femur_lat_r.torque.Z	femur_lat_meniscii_r.meniscus_lat_r.force.X	femur_lat_meniscii_r.meniscus_lat_r.force.Y	femur_lat_meniscii_r.meniscus_lat_r.force.Z	femur_lat_meniscii_r.meniscus_lat_r.torque.X	femur_lat_meniscii_r.meniscus_lat_r.torque.Y	femur_lat_meniscii_r.meniscus_lat_r.torque.Z	femur_med_meniscii_r.femur_med_r.force.X	femur_med_meniscii_r.femur_med_r.force.Y	femur_med_meniscii_r.femur_med_r.force.Z	femur_med_meniscii_r.femur_med_r.torque.X	femur_med_meniscii_r.femur_med_r.torque.Y	femur_med_meniscii_r.femur_med_r.torque.Z	femur_med_meniscii_r.meniscus_med_r.force.X	femur_med_meniscii_r.meniscus_med_r.force.Y	femur_med_meniscii_r.meniscus_med_r.force.Z	femur_med_meniscii_r.meniscus_med_r.torque.X	femur_med_meniscii_r.meniscus_med_r.torque.Y	femur_med_meniscii_r.meniscus_med_r.torque.Z	femur_med_tibia_r.tibia_upper_r.force.X	femur_med_tibia_r.tibia_upper_r.force.Y	femur_med_tibia_r.tibia_upper_r.force.Z	femur_med_tibia_r.tibia_upper_r.torque.X	femur_med_tibia_r.tibia_upper_r.torque.Y	femur_med_tibia_r.tibia_upper_r.torque.Z	femur_med_tibia_r.femur_med_r.force.X	femur_med_tibia_r.femur_med_r.force.Y	femur_med_tibia_r.femur_med_r.force.Z	femur_med_tibia_r.femur_med_r.torque.X	femur_med_tibia_r.femur_med_r.torque.Y	femur_med_tibia_r.femur_med_r.torque.Z	femur_lat_tibia_r.tibia_upper_r.force.X	femur_lat_tibia_r.tibia_upper_r.force.Y	femur_lat_tibia_r.tibia_upper_r.force.Z	femur_lat_tibia_r.tibia_upper_r.torque.X	femur_lat_tibia_r.tibia_upper_r.torque.Y	femur_lat_tibia_r.tibia_upper_r.torque.Z	femur_lat_tibia_r.femur_lat_r.force.X	femur_lat_tibia_r.femur_lat_r.force.Y	femur_lat_tibia_r.femur_lat_r.force.Z	femur_lat_tibia_r.femur_lat_r.torque.X	femur_lat_tibia_r.femur_lat_r.torque.Y	femur_lat_tibia_r.femur_lat_r.torque.Z	femur_lat_meniscii_force_r	femur_med_meniscii_force_r	femur_lat_tibia_force_r	femur_med_tibia_force_r
      0.14502687	      0.01306569	      0.01322916	     44.47188318	     14.04980353	    -15.33193426	     71.01667505	     72.45328951	      0.00000000	      0.00000000	      0.00000000	      0.00000000	      0.00000000	      0.00000000	      0.00000000	      0.00000000	      0.00000001	      0.00000000	      0.03294539	      0.02535359	      0.03187387	      0.03020536	      0.05828986	      0.05904028	      0.05696714	      0.05224256	      0.04825382	      0.04373849	      0.01525851	      0.01651186	      0.06550154	      0.04489616	      0.06256591	      0.01176810	      0.02503806	      0.01062509	     -0.02893932	     -0.01259705	     -0.02998336	     -0.06671709	     -0.14319927	     -0.16438220	      0.00000079	     -0.32847694	      0.00000060	     -0.00000086	     28.19636527	    352.95281363	     54.13799394	    -30.55232039	      0.88555797	      9.28623308	    -28.19636527	   -352.95281363	    -54.13799394	     10.34747232	     -1.90205377	      7.86398361	     23.95457060	     46.64363512	      8.60715310	     -2.43941540	     -0.45446890	      9.41724814	    -23.95457060	    -46.64363512	     -8.60715310	     -0.78974786	      0.25814237	      0.63376423	    -75.59754174	   -566.18749743	    114.89979095	    -11.62559906	      3.65473575	     10.51848799	     75.59754174	    566.18749743	   -114.89979095	     56.85252832	     -1.73886769	     28.67901776	     -0.49222979	    -46.14946333	    -10.10786898	      1.42494251	     -0.24775843	      1.06316257	      0.49222979	     46.14946333	     10.10786898	     -5.23251416	      0.06648183	     -0.05008870	    358.19219150	     53.13692910	     47.24599740	    582.65361281
      0.14568722	      0.01308405	      0.01333759	     44.78804341	     13.42590553	    -15.24056258	     77.42378029	     76.36175912	      0.00000000	      0.00000000	      0.00000000	      0.00000000	      0.00000000	      0.00000000	      0.00000000	      0.00000000	      0.00000001	      0.00000000	      0.03291974	      0.02532711	      0.03193428	      0.03024742	      0.05831274	      0.05903649	      0.05693963	      0.05224265	      0.04823417	      0.04370295	      0.01525851	      0.01651186	      0.06550154	      0.04489616	      0.06173872	      0.01071136	      0.02698088	      0.01203226	     -0.02855812	     -0.01266045	     -0.03045169	     -0.06671554	     -0.14354813	     -0.16506115	      0.00000079	     -0.32847694	      0.00000060	     -0.00000086	     29.73105950	    351.42921166	     53.92467058	    -30.43255312	      0.92017865	      9.90880745	    -29.73105950	   -351.42921166	    -53.92467058	     10.29776462	     -1.93982330	      7.83745784	     23.90891217	     45.42385222	      8.64115941	     -2.47574231	     -0.45799781	      9.41222080	    -23.90891217	    -45.42385222	     -8.64115941	     -0.76995455	      0.26085849	      0.60448003	    -81.57918920	   -567.03274463	    116.38430020	    -11.67457703	      3.79604625	     10.45601424	     81.57918920	    567.03274463	   -116.38430020	     57.46748715	     -1.85228083	     31.11254022	     -0.47895090	    -43.80177114	     -9.52233086	      1.34723306	     -0.23543130	      1.01674481	      0.47895090	     43.80177114	      9.52233086	     -4.93492998	      0.06378663	     -0.04674372	    356.78326307	     52.05412633	     44.82743952	    584.57386439
      0.14597685	      0.01309219	      0.01338509	     44.92686779	     13.04461327	    -15.30639311	     80.32858969	     78.06204252	      0.00000000	      0.00000000	      0.00000000	      0.00000000	      0.00000000	      0.00000000	      0.00000000	      0.00000000	      0.00000001	      0.00000000	      0.03290850	      0.02531557	      0.03196092	      0.03026594	      0.05832296	      0.05903498	      0.05692775	      0.05224280	      0.04822565	      0.04368750	      0.01525851	      0.01651186	      0.06550154	      0.04489616	      0.06137615	      0.01025081	      0.02783765	      0.01265198	     -0.02838783	     -0.01268574	     -0.03065397	     -0.06671291	     -0.14369945	     -0.16535636	      0.00000079	     -0.32847694	      0.00000060	     -0.00000086	     28.66630455	    349.94676535	     53.32660731	    -30.13733111	      0.88811280	      9.44807665	    -28.66630455	   -349.94676535	    -53.32660731	     10.22610713	     -1.89699604	      7.87604508	     23.86742999	     45.15000544	      8.63805360	     -2.48004403	     -0.45923164	      9.39809811	    -23.86742999	    -45.15000544	     -8.63805360	     -0.76548833	      0.26208948	      0.59992810	    -84.07356439	   -567.52402983	    116.76417034	    -11.68687635	      3.85122082	     10.43637756	     84.07356439	    567.52402983	   -116.76417034	     57.62404275	     -1.89972924	     32.12479222	     -0.50607782	    -42.66829510	     -9.31245716	      1.31253865	     -0.23188756	      0.99255775	      0.50607782	     42.66829510	      9.31245716	     -4.82199723	      0.06359868	     -0.03076446	    355.14535425	     51.79568684	     43.67563829	    585.47908600
      0.14636031	      0.01310305	      0.01344806	     45.11081521	     12.54163668	    -15.38483435	     84.21470867	     80.18004577	      0.00000000	      0.00000000	      0.00000000	      0.00000000	      0.00000000	      0.00000000	      0.00000000	      0.00000000	      0.00000001	      0.00000000	      0.03289356	      0.02530030	      0.03199622	      0.03029043	      0.05833656	      0.05903300	      0.05691209	      0.05224299	      0.04821435	      0.04366706	      0.01525851	      0.01651186	      0.06550154	      0.04489616	      0.06089425	      0.00964121	      0.02897295	      0.01347143	     -0.02816133	     -0.01271874	     -0.03092074	     -0.06670953	     -0.14390013	     -0.16574682	      0.00000079	     -0.32847694	      0.00000060	     -0.00000086	     27.98279315	    349.30607007	     53.19635865	    -30.07090398	      0.86278229	      9.13982533	    -27.98279315	   -349.30607007	    -53.19635865	     10.20346041	     -1.87057606	      7.92854304	     23.82332424	     44.60478880	      8.65352921	     -2.49666854	     -0.46101473	      9.38604256	    -23.82332424	    -44.60478880	     -8.65352921	     -0.75648924	      0.26349034	      0.58810373	    -87.58081639	   -568.34374977	    116.69862994	    -11.68808572	      3.91135429	     10.40745110	     87.58081639	    568.34374977	   -116.69862994	     57.59788458	     -1.96013678	     33.55004818	     -0.52546438	    -41.04071460	     -8.90552489	      1.25913703	     -0.22379364	      0.95788944	      0.52546438	     41.04071460	      8.90552489	     -4.61550359	      0.06232862	     -0.01574498	    354.43986778	     51.30323118	     41.99910406	    586.77388110
